<?xml version="1.0" encoding="utf-8"?>
<!-- Generator: Adobe Illustrator 25.0.0, SVG Export Plug-In . SVG Version: 6.00 Build 0)  -->
<svg version="1.1" id="Layer_1" xmlns="http://www.w3.org/2000/svg" xmlns:xlink="http://www.w3.org/1999/xlink" x="0px" y="0px"
	 viewBox="0 0 432 288" style="enable-background:new 0 0 432 288;" xml:space="preserve">
<style type="text/css">
	.st0{fill:#1B2237;}
	.st1{opacity:0.42;}
	.st2{fill:url(#SVGID_1_);}
	.st3{fill:url(#SVGID_2_);}
	.st4{fill:url(#SVGID_3_);}
	.st5{fill:url(#SVGID_4_);}
	.st6{fill:url(#SVGID_5_);}
	.st7{fill:url(#SVGID_6_);}
	.st8{fill:url(#SVGID_7_);}
	.st9{opacity:0.4;}
	.st10{fill:url(#SVGID_8_);}
	.st11{fill:url(#SVGID_9_);}
	.st12{fill:url(#SVGID_10_);}
	.st13{fill:url(#SVGID_11_);}
	.st14{fill:url(#SVGID_12_);}
	.st15{fill:url(#SVGID_13_);}
	.st16{fill:url(#SVGID_14_);}
</style>
<rect y="0" class="st0" width="432" height="288"/>
<g>
</g>
<g>
</g>
<g class="st1">
	<g>
		<g>
			
				<linearGradient id="SVGID_1_" gradientUnits="userSpaceOnUse" x1="68.9436" y1="16.0553" x2="245.2588" y2="200.3073" gradientTransform="matrix(1 0 0 1 69.2331 0)">
				<stop  offset="0.2413" style="stop-color:#F2A94A"/>
				<stop  offset="1" style="stop-color:#1B2237"/>
			</linearGradient>
			<path class="st2" d="M383.3,45.92c-2.73-11.14-5.31-22.49-7.67-33.72c-0.65-3.08-0.87-6.43-1.11-9.97
				c-0.05-0.74-0.1-1.48-0.15-2.22h-0.9c0.06,0.76,0.11,1.52,0.16,2.27c0.24,3.58,0.46,6.96,1.12,10.09
				c2.36,11.25,4.95,22.6,7.68,33.75c0.75,3.06,2.84,7.61,5.27,12.89c5.6,12.18,13.27,28.87,9.03,38.3
				c-1.34,2.98-3.84,5.1-7.42,6.31c-4.83,1.63-10.79-0.11-16.55-1.79c-3.78-1.1-7.35-2.14-10.6-2.28c-14.9-0.6-27.51,0.7-38.57,3.99
				c-22.96,6.83-46.16,27.84-43.93,53.35c0.48,5.52,2.14,11.1,3.73,16.48c2.84,9.57,5.52,18.61,2.25,27.47
				c-3.53,9.58-13,15.6-23.22,21.42L146.85,288h1.76l114.25-65.01c10.37-5.9,19.98-12.02,23.61-21.87c3.36-9.12,0.52-18.72-2.24-28
				c-1.59-5.35-3.23-10.88-3.7-16.32c-2.19-25.05,20.67-45.72,43.3-52.45c10.95-3.26,23.47-4.55,38.27-3.95
				c3.14,0.13,6.65,1.16,10.38,2.24c5.9,1.72,12,3.5,17.11,1.78c3.83-1.29,6.51-3.57,7.95-6.78c4.39-9.78-3.36-26.66-9.03-38.99
				C386.1,53.42,384.03,48.89,383.3,45.92z"/>
		</g>
		<g>
			
				<linearGradient id="SVGID_2_" gradientUnits="userSpaceOnUse" x1="25.4753" y1="57.6513" x2="201.7904" y2="241.9032" gradientTransform="matrix(1 0 0 1 69.2331 0)">
				<stop  offset="0.2413" style="stop-color:#F2A94A"/>
				<stop  offset="1" style="stop-color:#1B2237"/>
			</linearGradient>
			<path class="st3" d="M350.72,47.05c-2.27-8.39-4.5-17.19-6.83-26.91c-0.6-2.5-0.92-5.18-1.25-8.01C342.14,8,341.65,3.78,340.2,0
				h-0.97c1.5,3.77,2.01,8.04,2.51,12.23c0.34,2.86,0.65,5.56,1.27,8.11c2.33,9.73,4.57,18.54,6.84,26.93
				c0.72,2.68,2.53,6.47,4.62,10.87c5.88,12.36,13.94,29.29,3.9,35.05c-3.12,1.79-7.08,1.37-11.26,0.93c-0.96-0.1-1.93-0.2-2.9-0.28
				c-1.78-0.14-3.23-0.15-4.55-0.04c-8.42,0.72-19.96,1.7-30.4,4.67c-4.23,1.2-8.25,2.76-11.95,4.65
				c-15.73,8.03-25.98,20.13-27.43,32.38c-0.45,3.73-0.13,7.49,0.18,11.12c0.55,6.49,1.07,12.63-2.39,18.7
				c-3.95,6.89-12.28,11.38-19.78,15.04c-13.96,6.82-32.03,16.16-47.94,27.9c-4.33,3.22-8.14,6.71-11.81,10.09
				c-2.88,2.65-5.86,5.38-9.08,7.97c-2.93,2.37-6.31,4.47-9.57,6.49c-2.76,1.71-5.62,3.49-8.18,5.41c-2.4,1.8-4.48,3.78-6.5,5.69
				c-4.17,3.95-8.11,7.69-14.49,9.83c-5.72,1.92-11.34,4.16-17.67,7.06c-4.52,2.07-9.02,4.37-13.79,6.81l-2.69,1.38
				c-9.23,4.71-16.85,7.16-23.98,7.73c-7.22,0.57-14.65-0.75-21.59-2.27l-1.6-0.36c-6.4-1.43-12.45-2.79-18.56-2.25
				c-3.91,0.34-7.64,1.43-11.26,2.49c-4.46,1.3-9.11,2.65-14.07,2.6c-6.51-0.07-11.02-2.07-15.13-5.12l0,1.08
				c4.09,2.92,8.63,4.83,15.12,4.9c5.13,0.05,9.81-1.31,14.34-2.64c3.57-1.04,7.26-2.12,11.08-2.45c5.98-0.52,11.95,0.82,18.28,2.23
				l1.6,0.36c7.02,1.54,14.53,2.88,21.87,2.29c7.25-0.58,14.98-3.06,24.32-7.83l2.69-1.38c4.76-2.43,9.26-4.73,13.76-6.8
				c6.3-2.89,11.89-5.12,17.58-7.03c6.57-2.2,10.58-6,14.82-10.03c2-1.89,4.06-3.85,6.42-5.62c2.53-1.9,5.37-3.67,8.11-5.37
				c3.29-2.04,6.68-4.15,9.66-6.55c3.24-2.6,6.23-5.35,9.12-8.01c3.66-3.36,7.45-6.83,11.74-10.03
				c15.85-11.7,33.87-21.01,47.8-27.82c7.62-3.72,16.09-8.29,20.16-15.4c3.59-6.3,3.04-12.85,2.5-19.18
				c-0.3-3.59-0.62-7.3-0.18-10.95c1.41-11.96,11.49-23.82,26.95-31.71c3.65-1.86,7.61-3.41,11.78-4.59
				c10.35-2.94,21.84-3.92,30.22-4.64c1.27-0.11,2.67-0.1,4.4,0.04c0.96,0.07,1.92,0.18,2.87,0.28c4.34,0.46,8.43,0.89,11.82-1.05
				c10.73-6.15,2.48-23.49-3.55-36.15C353.21,53.42,351.42,49.65,350.72,47.05z"/>
		</g>
		<g>
			
				<linearGradient id="SVGID_3_" gradientUnits="userSpaceOnUse" x1="23.9178" y1="59.1417" x2="200.2328" y2="243.3935" gradientTransform="matrix(1 0 0 1 69.2331 0)">
				<stop  offset="0.2413" style="stop-color:#F2A94A"/>
				<stop  offset="1" style="stop-color:#1B2237"/>
			</linearGradient>
			<path class="st4" d="M318.13,48.18c-1.81-5.82-3.66-12.02-6-20.1c-0.56-1.93-0.97-3.93-1.41-6.05
				c-0.99-4.82-2.02-9.81-4.97-13.82c-2.48-3.36-5.7-5.41-8.52-6.98c-0.99-0.55-1.96-0.91-2.91-1.23h-2.67
				c0.56,0.21,1.11,0.4,1.65,0.58c1.19,0.39,2.32,0.76,3.49,1.4c2.74,1.52,5.85,3.51,8.24,6.74c2.84,3.85,3.85,8.75,4.82,13.48
				c0.42,2.04,0.85,4.15,1.43,6.11c2.34,8.08,4.19,14.29,6,20.11c0.74,2.38,2.31,5.51,4.13,9.13c4.4,8.76,9.87,19.66,5.99,25.29
				c-1.65,2.4-3.96,3.26-7.29,4.29l-0.12,0.04c-0.91,0.28-1.86,0.58-2.84,0.9c-3.69,1.22-8,2.14-12.56,3.12
				c-3.18,0.68-6.47,1.38-9.61,2.21c-3.46,0.9-6.54,1.9-9.15,2.97c-12,4.92-21.09,11.18-25.6,17.63c-1.37,1.95-2.38,3.91-3.35,5.81
				c-1.75,3.42-3.41,6.65-7.09,9.94c-4.1,3.64-10.29,6.34-16.38,8.71c-19.25,7.51-34.41,16.56-45.05,26.9
				c-3.7,3.62-6.24,7.72-8.7,11.69c-1.93,3.11-3.92,6.32-6.45,9.27c-2.31,2.71-5.44,4.84-8.46,6.9c-2.56,1.74-5.21,3.55-7.32,5.68
				c-2.07,2.1-3.44,4.54-4.76,6.9c-2.52,4.51-4.9,8.78-11.94,9.75c-6.61,0.92-12.22,2.21-17.67,4.06
				c-5.12,1.74-10.31,4.19-15.87,7.49c-7.91,4.69-14.63,8.21-21.71,10.14c-6.68,1.82-13.36,2.15-20.4,1.01
				c-3.32-0.55-6.62-1.39-9.8-2.21c-2.94-0.75-5.98-1.54-8.93-2.05c-8.64-1.49-16.56-1-24.59-0.31c-2.14,0.18-4.1,0.41-6,0.62
				c-5.92,0.67-10.69,1.2-15.76-0.05v0.88c5.21,1.23,10.11,0.68,15.86,0.03c1.89-0.21,3.85-0.44,5.97-0.62
				c7.97-0.68,15.82-1.18,24.35,0.3c2.92,0.5,5.81,1.25,8.86,2.03c3.21,0.82,6.52,1.68,9.88,2.23c7.18,1.16,13.98,0.82,20.8-1.03
				c7.18-1.95,13.96-5.5,21.94-10.23c5.5-3.26,10.64-5.69,15.7-7.41c5.38-1.83,10.94-3.11,17.49-4.02c7.49-1.04,9.97-5.49,12.6-10.2
				c1.29-2.31,2.62-4.7,4.62-6.72c2.05-2.08,4.54-3.78,7.19-5.57c3.07-2.09,6.25-4.25,8.63-7.05c2.57-2.99,4.58-6.24,6.53-9.37
				c2.43-3.93,4.95-7.99,8.57-11.53c10.56-10.26,25.61-19.24,44.75-26.71c6.16-2.4,12.45-5.14,16.65-8.88
				c3.8-3.4,5.57-6.85,7.28-10.19c0.96-1.87,1.95-3.8,3.29-5.7c4.35-6.22,13.54-12.53,25.21-17.32c2.57-1.06,5.61-2.04,9.04-2.93
				c3.12-0.82,6.4-1.52,9.57-2.2c4.59-0.98,8.92-1.91,12.66-3.14c0.97-0.32,1.92-0.61,2.82-0.89l0.12-0.04
				c3.4-1.05,5.96-2,7.77-4.63c4.16-6.04-1.44-17.19-5.93-26.14C320.41,53.59,318.85,50.49,318.13,48.18z"/>
		</g>
		<g>
			
				<linearGradient id="SVGID_4_" gradientUnits="userSpaceOnUse" x1="23.6233" y1="59.4235" x2="199.9384" y2="243.6754" gradientTransform="matrix(1 0 0 1 69.2331 0)">
				<stop  offset="0.2413" style="stop-color:#F2A94A"/>
				<stop  offset="1" style="stop-color:#1B2237"/>
			</linearGradient>
			<path class="st5" d="M285.55,49.3c-2.99-7.75-6.02-15.49-9.04-23.23c-2.16-5.51-4.31-11.03-6.45-16.54
				c-1.34-3.47-2.67-6.71-4.38-9.52h-1.05c1.81,2.86,3.2,6.21,4.59,9.82c2.14,5.52,4.3,11.03,6.45,16.55
				c3.02,7.74,6.05,15.48,9.04,23.22c0.96,2.49,2.78,5.48,4.7,8.64c4.6,7.57,9.82,16.14,6.48,22.38c-2.84,5.3-13.17,7.33-19.34,8.55
				c-0.79,0.16-1.53,0.3-2.19,0.44c-8.46,1.78-17.38,2.44-26,3.08c-9.79,0.72-19.92,1.47-29.43,3.87
				c-17.69,4.45-33.07,13.9-42.19,25.91c-3.05,4.02-4.34,8.74-5.58,13.3c-0.97,3.57-1.98,7.26-3.82,10.56
				c-1.7,3.04-4.57,5.21-7.35,7.3c-2.36,1.77-4.79,3.61-6.46,5.96c-1.72,2.43-2.3,5.39-2.86,8.25c-1.03,5.25-1.94,9.79-9.55,9.55
				c-12.08-0.37-21.52-0.02-32.91,7.83c-1.23,0.85-2.47,1.72-3.72,2.6c-10.86,7.63-22.09,15.53-34.94,14.24
				c-6.09-0.61-11.94-3.36-17.59-6.01c-7.54-3.54-15.33-7.19-23.58-5.6c-4.53,0.88-8.75,3.29-12.83,5.63
				c-5.22,2.99-10.2,5.84-15.54,5.47l0,0.86c5.63,0.34,10.89-2.66,16-5.59c4.01-2.3,8.17-4.67,12.55-5.52
				c7.96-1.54,15.27,1.89,23.01,5.53c5.72,2.68,11.64,5.46,17.89,6.09c13.19,1.33,24.56-6.67,35.56-14.4
				c1.25-0.88,2.49-1.75,3.72-2.6c11.16-7.7,20.45-8.04,32.36-7.67c8.38,0.27,9.45-5.09,10.46-10.26c0.55-2.78,1.11-5.65,2.72-7.92
				c1.58-2.24,3.86-3.95,6.27-5.76c2.85-2.15,5.8-4.37,7.59-7.57c1.89-3.39,2.91-7.13,3.9-10.75c1.22-4.49,2.48-9.13,5.43-13.01
				c9-11.86,24.2-21.18,41.7-25.58c9.43-2.37,19.52-3.12,29.27-3.84c8.65-0.64,17.6-1.3,26.13-3.09c0.66-0.14,1.39-0.28,2.18-0.44
				c6.74-1.33,16.92-3.33,19.95-9c3.56-6.66-1.79-15.46-6.51-23.22C288.28,54.67,286.48,51.72,285.55,49.3z"/>
		</g>
		<g>
			
				<linearGradient id="SVGID_5_" gradientUnits="userSpaceOnUse" x1="15.6454" y1="67.0579" x2="191.9604" y2="251.3099" gradientTransform="matrix(1 0 0 1 69.2331 0)">
				<stop  offset="0.2413" style="stop-color:#F2A94A"/>
				<stop  offset="1" style="stop-color:#1B2237"/>
			</linearGradient>
			<path class="st6" d="M225.88,24.61c-1.25-3.13-2.72-6.48-4.48-10.23c-1.85-3.96-4.11-8.46-7.6-11.72
				c-0.65-0.61-1.34-1.17-2.05-1.66c-0.51-0.36-1.04-0.68-1.58-0.99h-1.8c0.98,0.52,1.95,1.06,2.85,1.69c0.67,0.47,1.33,1,1.95,1.58
				c3.38,3.15,5.59,7.57,7.41,11.46c1.76,3.74,3.22,7.07,4.46,10.18l0.25,0.63c3.02,7.54,6.14,15.33,6.16,22.45
				c0.01,5.15-0.46,8.63-1.12,13.46c-0.43,3.17-1.27,6.81-4.22,9.77c-1.9,1.9-4.93,3.46-8.78,4.49c-2.65,0.71-5.42,1.29-8.1,1.85
				c-2.36,0.5-4.6,0.97-6.5,1.47c-3.81,1.02-7.54,2.03-11.14,3.22c-3.92,1.28-6.43,3.31-8.26,4.79c-0.39,0.31-0.74,0.6-1.06,0.84
				c-1.28,0.96-2.34,1.5-3.35,2.01c-0.43,0.22-0.86,0.44-1.3,0.68c-0.76,0.43-1.39,1.07-2.11,1.81c-0.78,0.8-1.75,1.8-3.22,2.86
				c-2.62,1.89-5.66,3.81-8.87,5.85c-7.47,4.73-15.93,10.1-22.16,16.94c-1.94,2.14-3.23,4.39-4.23,6.31
				c-0.49,0.92-0.94,1.85-1.39,2.77c-1.28,2.61-2.49,5.07-4.31,7.3c-1.65,2.01-4.12,3.37-6.51,4.69c-1.93,1.07-3.93,2.17-5.42,3.6
				c-1.55,1.48-2.35,3.31-3.12,5.08c-1.42,3.28-2.65,6.11-8.45,5.69c-9.6-0.69-17.68-0.82-26.89,4.2c-1.84,1-3.73,2.08-5.56,3.13
				c-4.04,2.31-8.21,4.69-12.45,6.62c-5.07,2.31-9.33,3.47-13.38,3.62c-4.6,0.18-8.98-0.94-13.22-2.02
				c-5.79-1.48-11.78-3.01-18.2-1.13c-1.51,0.44-3.06,1.08-4.9,2.02c-1.5,0.76-3,1.62-4.45,2.45c-2.97,1.71-5.85,3.35-8.79,4.26
				v0.89c3.19-0.93,6.25-2.68,9.25-4.4c1.44-0.83,2.93-1.68,4.41-2.43c1.79-0.91,3.29-1.53,4.74-1.95
				c6.18-1.81,11.78-0.38,17.71,1.13c4.3,1.1,8.76,2.23,13.48,2.05c4.17-0.16,8.54-1.34,13.72-3.71c4.27-1.95,8.46-4.34,12.52-6.66
				c1.83-1.04,3.72-2.12,5.55-3.12c8.99-4.9,16.93-4.77,26.38-4.09c6.44,0.46,7.92-2.93,9.35-6.22c0.73-1.69,1.49-3.44,2.92-4.8
				c1.41-1.35,3.27-2.37,5.24-3.46c2.46-1.36,5.01-2.77,6.76-4.91c1.89-2.31,3.18-4.93,4.42-7.46c0.45-0.91,0.9-1.83,1.38-2.75
				c0.98-1.87,2.23-4.06,4.11-6.13c6.14-6.75,14.55-12.08,21.98-16.78c3.23-2.05,6.27-3.98,8.92-5.88c1.53-1.1,2.53-2.13,3.34-2.96
				c0.7-0.72,1.26-1.29,1.91-1.66c0.42-0.24,0.84-0.45,1.26-0.66c1.05-0.53,2.14-1.09,3.49-2.1c0.33-0.25,0.69-0.54,1.09-0.86
				c1.77-1.44,4.2-3.41,7.97-4.64c3.58-1.18,7.29-2.19,11.09-3.2c1.88-0.5,4.1-0.97,6.45-1.46c2.69-0.57,5.47-1.15,8.15-1.87
				c4-1.08,7.17-2.71,9.18-4.72c3.13-3.14,4.01-6.94,4.46-10.25c0.66-4.86,1.14-8.36,1.13-13.57c-0.02-7.28-3.17-15.15-6.22-22.76
				L225.88,24.61z"/>
		</g>
		<g>
			
				<linearGradient id="SVGID_6_" gradientUnits="userSpaceOnUse" x1="7.9088" y1="74.4613" x2="184.2239" y2="258.7132" gradientTransform="matrix(1 0 0 1 69.2331 0)">
				<stop  offset="0.2413" style="stop-color:#F2A94A"/>
				<stop  offset="1" style="stop-color:#1B2237"/>
			</linearGradient>
			<path class="st7" d="M172.73,19.22c-1.49-2.49-3.83-6.15-6.97-9.08c-0.53-0.5-1.08-0.97-1.63-1.4c-1.02-0.8-2.11-1.51-3.17-2.2
				c-1.28-0.84-2.6-1.7-3.78-2.71c-1.38-1.18-2.52-2.48-3.52-3.83h-1.09c1.11,1.58,2.39,3.09,4.01,4.48
				c1.22,1.04,2.57,1.92,3.87,2.78c1.04,0.68,2.12,1.38,3.11,2.16c0.53,0.41,1.06,0.87,1.57,1.35c3.06,2.86,5.35,6.44,6.81,8.89
				c1.72,2.86,3.06,5.49,4.12,8.04c2.29,5.53,4.53,13.26,2.19,18.67c-1.55,3.59-4.41,4.76-7.43,6.01c-1.6,0.66-3.26,1.35-4.79,2.41
				c-1.08,0.76-2.14,1.6-3.25,2.48c-1.94,1.55-3.96,3.15-6.43,4.56c-2.87,1.64-6.29,2.82-9.9,3.42c-5.29,0.87-10.75,1.77-15.33,3.21
				c-4.24,1.34-7.89,2.87-11.16,4.69c-4.67,2.58-5.25,7.79-3.87,10.41c1.08,2.05,2.82,2.9,4.51,3.73c0.4,0.2,0.79,0.39,1.18,0.6
				c2.66,1.47,3.93,3.5,3.88,6.22c-3.6,5.88-13.03,13.94-19.82,19.5c-1.28,1.05-2.39,2.09-3.46,3.1l-0.87,0.82
				c-1.96,1.83-3.8,3.57-6.11,4.94c-1.69,1.01-3.87,1.57-5.97,2.11c-1.46,0.37-2.84,0.73-4.06,1.22c-1.3,0.53-2.26,1.21-3.19,1.87
				c-1.89,1.35-3.51,2.51-7.61,1.91c-7.23-1.07-13.79-1.76-20.85,0.56c-4.11,1.35-8.57,3.18-14.46,5.93
				c-3.37,1.57-6.56,3.06-9.74,4.02c-3.04,0.92-5.9,1.37-8.68,1.8c-4.1,0.64-8.33,1.3-12.98,3.51c-1.25,0.6-2.47,1.3-3.5,1.9
				c-0.5,0.29-1,0.59-1.5,0.89c-0.95,0.57-1.91,1.13-2.87,1.67v1c1.13-0.62,2.24-1.28,3.35-1.94c0.5-0.3,1-0.59,1.5-0.88
				c1.01-0.59,2.21-1.28,3.43-1.86c4.52-2.15,8.51-2.77,12.72-3.43c2.8-0.44,5.7-0.89,8.8-1.83c3.24-0.98,6.46-2.48,9.87-4.07
				c5.85-2.73,10.28-4.55,14.35-5.89c6.88-2.26,13.06-1.61,20.42-0.52c4.46,0.66,6.32-0.67,8.28-2.07c0.88-0.63,1.8-1.28,3-1.77
				c1.17-0.47,2.52-0.82,3.94-1.18c2.17-0.56,4.4-1.13,6.21-2.21c2.39-1.42,4.27-3.18,6.26-5.05l0.87-0.82
				c1.06-1,2.15-2.03,3.41-3.06c6.88-5.63,16.45-13.81,20.08-19.82l0.06-0.09l0-0.11c0.1-3.12-1.32-5.45-4.33-7.11
				c-0.4-0.22-0.8-0.42-1.21-0.62c-1.63-0.8-3.16-1.56-4.12-3.35c-1.23-2.32-0.68-6.95,3.52-9.27c3.21-1.79,6.81-3.3,10.99-4.61
				c4.52-1.42,9.95-2.32,15.21-3.18c3.72-0.62,7.25-1.84,10.21-3.52c2.54-1.45,4.57-3.07,6.54-4.64c1.1-0.88,2.15-1.71,3.21-2.45
				c1.45-1.01,3.06-1.67,4.62-2.32c3.06-1.26,6.21-2.56,7.91-6.47c2.46-5.68,0.17-13.65-2.18-19.33
				C175.83,24.79,174.47,22.12,172.73,19.22z"/>
		</g>
		<g>
			
				<linearGradient id="SVGID_7_" gradientUnits="userSpaceOnUse" x1="0.8441" y1="81.2217" x2="177.1592" y2="265.4737" gradientTransform="matrix(1 0 0 1 69.2331 0)">
				<stop  offset="0.2413" style="stop-color:#F2A94A"/>
				<stop  offset="1" style="stop-color:#1B2237"/>
			</linearGradient>
			<path class="st8" d="M117.74,17.62c-7.3-6.83-15.57-14.58-26.19-17.45C91.31,0.11,91.07,0.06,90.83,0h-4.53
				c1.7,0.26,3.38,0.57,5,1.01c10.4,2.81,18.58,10.47,25.8,17.23c3.69,3.45,7.87,7.37,9.99,12.23c1.87,4.27,2.05,10.56-1.96,14.29
				c-3.81,3.54-9.24,3.43-14.99,3.3c-2.8-0.06-5.69-0.12-8.4,0.28c-4.31,0.63-8.24,1.91-12.05,3.15c-4.67,1.52-9.08,2.95-14.14,3.31
				c-11.85,0.84-20.25,3.69-27.23,9.25c-1.73,1.38-2.68,3.47-2.66,5.88c0.02,3.3,1.77,6.79,4.47,8.89
				c3.69,2.88,8.42,3.95,12.99,4.98c0.97,0.22,1.93,0.44,2.89,0.67c7.1,1.75,11.41,4.55,13.19,8.55c1.59,3.58,0.49,6.88-0.72,9.02
				c-2.38,4.22-7.09,7.47-12,8.29c-7.61,1.27-15.26-1.32-22.65-3.83c-0.84-0.28-1.67-0.56-2.5-0.84c-7.69-2.55-17.57-4.98-25.74-1
				c-4.99,2.43-8.43,6.8-11.75,11.03c-1.24,1.58-2.5,3.19-3.86,4.7v1.3c1.63-1.75,3.12-3.63,4.57-5.48
				c3.41-4.34,6.64-8.45,11.44-10.78c7.87-3.83,17.52-1.45,25.05,1.05c0.83,0.27,1.66,0.56,2.49,0.84c7.5,2.54,15.26,5.17,23.1,3.86
				c5.17-0.86,10.13-4.29,12.63-8.73c1.84-3.26,2.11-6.73,0.75-9.78c-1.9-4.26-6.41-7.22-13.79-9.04c-0.96-0.24-1.93-0.46-2.9-0.68
				c-4.48-1.01-9.1-2.06-12.64-4.82c-2.5-1.95-4.12-5.17-4.14-8.22c-0.01-1.52,0.39-3.66,2.34-5.21c6.83-5.43,15.07-8.23,26.72-9.05
				c5.18-0.37,9.85-1.88,14.36-3.35c3.77-1.23,7.67-2.49,11.9-3.11c2.63-0.39,5.48-0.32,8.24-0.27c5.68,0.12,11.55,0.24,15.63-3.54
				c4.34-4.03,4.22-10.57,2.17-15.25C125.73,25.11,121.49,21.13,117.74,17.62z"/>
		</g>
	</g>
	<g class="st9">
		<g>
			
				<linearGradient id="SVGID_8_" gradientUnits="userSpaceOnUse" x1="66.1658" y1="18.7141" x2="242.4807" y2="202.9658" gradientTransform="matrix(1 0 0 1 69.2331 0)">
				<stop  offset="0.2413" style="stop-color:#F2A94A"/>
				<stop  offset="1" style="stop-color:#1B2237"/>
			</linearGradient>
			<path class="st10" d="M395.58,0c-1.15,10.12-2.99,20.16-6.04,29.94c-7.79,24.93-22.73,44-42.06,53.69
				c-12.21,6.12-26.11,8.47-39.55,10.75c-6.44,1.09-13.1,2.22-19.52,3.75c-24.6,5.86-41.66,19.13-45.63,35.49
				c-1.48,6.09-1.26,12.71-1.05,19.1c0.35,10.44,0.67,20.31-5.87,27.81c-5.89,6.76-15.85,9.48-25.49,12.11
				c-12.43,3.4-24.18,6.6-26.34,18.01c-1.19,6.28,1.69,12.22,4.47,17.96c2.21,4.57,4.5,9.3,4.78,14.22
				c0.96,16.82-19.54,26.21-37.39,29.14l-0.36,0.06c-14.66,2.41-32.36,5.32-41.44,15.97h1.18c9.03-9.96,26.17-12.78,40.4-15.12
				l0.36-0.06c18.21-2.99,39.12-12.65,38.13-30.04c-0.29-5.08-2.62-9.89-4.87-14.54c-2.85-5.88-5.54-11.44-4.4-17.44
				c2.06-10.88,13.55-14.01,25.7-17.33c9.77-2.67,19.87-5.43,25.93-12.39c6.76-7.76,6.43-17.78,6.08-28.4
				c-0.21-6.34-0.43-12.89,1.02-18.87c3.89-16.04,20.7-29.06,44.97-34.85c6.39-1.52,13.03-2.65,19.46-3.73
				c13.51-2.29,27.48-4.65,39.81-10.83c19.56-9.8,34.65-29.06,42.51-54.21c3.08-9.87,4.93-20,6.09-30.19H395.58z"/>
		</g>
		<g>
			
				<linearGradient id="SVGID_9_" gradientUnits="userSpaceOnUse" x1="38.9172" y1="44.7891" x2="215.2319" y2="229.0407" gradientTransform="matrix(1 0 0 1 69.2331 0)">
				<stop  offset="0.2413" style="stop-color:#F2A94A"/>
				<stop  offset="1" style="stop-color:#1B2237"/>
			</linearGradient>
			<path class="st11" d="M327.67,0h-0.9c0.09,1.46,0.21,2.9,0.34,4.3c0.23,2.51,0.48,5.11,0.48,7.73
				c-0.01,9.81-1.96,18.99-5.81,27.3c-7.93,17.12-19.03,31.07-32.11,40.36c-1.31,0.93-2.64,1.82-3.95,2.64
				c-8.64,5.42-17.69,8.86-26.44,12.2c-5.02,1.91-10.2,3.89-15.12,6.18c-3.34,1.56-6.52,3.31-9.46,5.2
				c-11.73,7.49-19.05,17.03-21.15,27.59c-1,5.02-0.87,10.39-0.74,15.59c0.21,8.52,0.4,16.57-3.99,23.08
				c-3.91,5.81-10.47,9.02-16.83,12.13c-5.92,2.89-11.5,5.62-14.94,10.27c-1.56,2.1-2.52,4.39-2.95,7.01
				c-0.78,4.77,0.82,9.33,2.36,13.74c1.5,4.29,2.92,8.33,2.33,12.54c-1.69,12.12-16.37,15.28-24.97,16.09
				c-5.74,0.54-11.9,0.25-17.69-0.13c-4.1-0.27-10.29-0.52-16.62,0.54c-13.65,2.32-24.67,9.66-31.05,20.69
				c-2.3,3.98-3.77,8.09-5.2,12.05c-1.23,3.42-2.38,6.64-3.98,9.58c-0.24,0.45-0.51,0.89-0.77,1.33h1.04
				c0.18-0.31,0.36-0.61,0.53-0.92c1.63-2.99,2.8-6.25,4.04-9.7c1.41-3.93,2.87-8,5.13-11.92c6.24-10.79,17.05-17.99,30.42-20.26
				c6.24-1.04,12.35-0.8,16.4-0.53c5.83,0.39,12.03,0.67,17.84,0.13c8.86-0.83,23.99-4.12,25.77-16.83
				c0.62-4.41-0.9-8.74-2.37-12.93c-1.51-4.31-3.07-8.77-2.32-13.33c0.41-2.48,1.33-4.65,2.8-6.64c3.31-4.47,8.8-7.16,14.62-10
				c6.46-3.16,13.14-6.42,17.17-12.43c4.54-6.73,4.33-15.29,4.13-23.57c-0.12-5.15-0.25-10.48,0.73-15.41
				c2.06-10.33,9.24-19.67,20.77-27.03c2.9-1.86,6.05-3.59,9.35-5.14c4.89-2.28,9.83-4.16,15.06-6.15
				c8.79-3.35,17.89-6.81,26.6-12.28c1.33-0.83,2.67-1.73,3.99-2.67c13.2-9.38,24.4-23.45,32.39-40.71
				c3.9-8.42,5.88-17.72,5.89-27.65c0-2.66-0.24-5.27-0.48-7.8C327.88,2.84,327.77,1.43,327.67,0z"/>
		</g>
		<g>
			
				<linearGradient id="SVGID_10_" gradientUnits="userSpaceOnUse" x1="4.7431" y1="77.4908" x2="181.0581" y2="261.7426" gradientTransform="matrix(1 0 0 1 69.2331 0)">
				<stop  offset="0.2413" style="stop-color:#F2A94A"/>
				<stop  offset="1" style="stop-color:#1B2237"/>
			</linearGradient>
			<path class="st12" d="M259.32,12.62c-0.65-2.35-1.32-4.79-1.62-7.3c-0.22-1.85-0.21-3.64,0.02-5.31h-0.9
				c-0.22,1.71-0.23,3.53-0.01,5.41c0.31,2.58,0.99,5.04,1.64,7.42c0.66,2.39,1.34,4.87,1.63,7.42c1.24,10.82-0.79,20.4-6.04,28.46
				c-7.83,12.03-18.71,22.31-27.32,29.91c-0.93,0.82-1.85,1.63-2.76,2.43c-1.64,1.43-3.24,2.81-4.8,4.16
				c-7.31,6.32-13.62,11.77-19.29,18.15c-1.66,1.87-3.28,3.85-4.81,5.89c-6.14,8.14-9.65,16.03-10.73,24.12
				c-0.52,3.94-0.48,8.07-0.44,12.07c0.07,6.61,0.13,12.86-2.11,18.38c-1.96,4.87-5.2,8.52-8.33,12.05
				c-3.05,3.44-5.93,6.68-7.75,10.96c-0.78,1.85-1.29,3.7-1.53,5.65c-0.39,3.14,0.05,6.21,0.46,9.19c0.55,3.94,1.07,7.66-0.31,11.17
				c-4.11,10.4-18.81,10.9-30.15,8.16c-3.48-0.84-7.08-1.99-10.57-3.11c-2.37-0.76-4.82-1.54-7.25-2.24
				c-6.49-1.88-11.97-2.49-17.25-1.91c-11.85,1.32-22.11,8.26-32.31,21.87c-1.4,1.87-2.72,3.75-3.99,5.57
				c-3.65,5.2-7.09,10.12-11.59,13.6c-1.21,0.94-2.59,1.82-4.2,2.71c-3.26,1.79-6.85,3-10.23,4.04c-13.98,4.3-26.27,6.73-36.77,7.29
				l0,0.86c10.6-0.56,22.98-3.01,37.04-7.33c3.43-1.06,7.07-2.28,10.4-4.11c1.66-0.91,3.07-1.82,4.32-2.79
				c4.61-3.56,8.09-8.53,11.78-13.79c1.27-1.81,2.59-3.69,3.98-5.55c10.04-13.39,20.1-20.23,31.68-21.52
				c5.16-0.56,10.53,0.04,16.9,1.88c2.42,0.69,4.86,1.47,7.22,2.23c3.5,1.12,7.12,2.28,10.63,3.13c11.7,2.82,26.89,2.24,31.21-8.69
				c1.47-3.72,0.93-7.54,0.37-11.6c-0.41-2.92-0.83-5.94-0.46-8.97c0.24-1.87,0.72-3.64,1.47-5.43c1.76-4.15,4.59-7.35,7.6-10.73
				c3.18-3.58,6.48-7.29,8.49-12.3c2.3-5.68,2.23-12.3,2.17-18.7c-0.04-3.97-0.08-8.08,0.43-11.96c1.06-7.95,4.51-15.71,10.57-23.72
				c1.52-2.02,3.13-3.98,4.77-5.83c5.63-6.33,11.93-11.77,19.21-18.07c1.56-1.35,3.16-2.73,4.8-4.16c0.91-0.8,1.83-1.61,2.76-2.43
				c8.64-7.64,19.58-17.97,27.47-30.09c5.36-8.23,7.44-17.99,6.17-29.01C260.67,17.54,259.99,15.04,259.32,12.62z"/>
		</g>
		<g>
			
				<linearGradient id="SVGID_11_" gradientUnits="userSpaceOnUse" x1="-1.6302" y1="83.5894" x2="174.6849" y2="267.8414" gradientTransform="matrix(1 0 0 1 69.2331 0)">
				<stop  offset="0.2413" style="stop-color:#F2A94A"/>
				<stop  offset="1" style="stop-color:#1B2237"/>
			</linearGradient>
			<path class="st13" d="M190.65,20.62c-1.1-2.47-2.24-5.03-2.79-7.73C187,8.68,187.78,4.71,189.99,2c0.61-0.75,1.33-1.41,2.12-2
				h-1.39c-0.51,0.45-1,0.94-1.43,1.47c-2.37,2.9-3.22,7.12-2.31,11.58c0.57,2.79,1.73,5.39,2.85,7.91
				c1.07,2.41,2.18,4.89,2.75,7.52c2.7,12.41,0.59,22.38-6.25,29.61c-3.01,3.18-6.66,5.87-10.18,8.48c-4.42,3.27-9,6.64-12.38,11.03
				c-7.3,9.45-8.08,21.51-8.3,35.14l-1.08,66.45c-0.12,7.3-0.54,13.73-4.48,18.65c-7.77,9.69-23.8,6.93-35.41,0.28
				c-2.27-1.3-4.57-2.74-6.8-4.12c-9.03-5.63-18.37-11.45-29-10.85c-13.12,0.74-21.8,10.22-30.98,20.25
				c-7.23,7.9-14.71,16.07-24.56,19.56c-6.03,2.14-12.57,2.37-18.9,2.59c-1.39,0.05-2.81,0.13-4.25,0.23l0,0.86
				c1.45-0.1,2.88-0.18,4.28-0.23c6.39-0.23,13.01-0.46,19.17-2.65c10.06-3.56,17.61-11.82,24.92-19.8
				c9.06-9.9,17.62-19.25,30.36-19.96c10.35-0.57,19.55,5.16,28.46,10.71c2.24,1.39,4.55,2.83,6.83,4.14
				c11.93,6.84,28.47,9.61,36.57-0.49c4.45-5.54,4.58-13.41,4.67-19.16l1.08-66.45c0.22-13.48,0.98-25.39,8.12-34.64
				c3.31-4.29,7.83-7.63,12.21-10.86c3.56-2.63,7.24-5.34,10.3-8.58c7.05-7.45,9.23-17.67,6.47-30.37
				C192.86,25.59,191.74,23.06,190.65,20.62z"/>
		</g>
		<g>
			
				<linearGradient id="SVGID_12_" gradientUnits="userSpaceOnUse" x1="1.1569" y1="80.9225" x2="177.4719" y2="265.1744" gradientTransform="matrix(1 0 0 1 69.2331 0)">
				<stop  offset="0.2413" style="stop-color:#F2A94A"/>
				<stop  offset="1" style="stop-color:#1B2237"/>
			</linearGradient>
			<path class="st14" d="M160.25,0c-1.96,3.63-4.52,6.76-7.64,9.25c-0.31,0.24-0.62,0.48-0.93,0.73c-1.47,1.13-2.98,2.3-4.05,3.98
				c-0.68,1.07-1.14,2.32-1.37,3.73c-0.26,1.62-0.21,3.43,0.14,5.22c0.41,2.05,1.15,3.98,1.88,5.86c0.76,1.96,1.54,3.98,1.9,6.1
				c1.63,9.45-0.24,17.02-5.55,22.52c-2.45,2.54-5.42,4.65-8.3,6.7c-3.19,2.27-6.49,4.62-9.08,7.55
				c-6.05,6.85-7.55,15.62-8.65,24.76c-0.21,1.72-0.41,3.44-0.6,5.18c-0.96,8.74-1.64,17.9-2.29,26.75
				c-0.41,5.65-0.84,11.48-1.34,17.14c-0.39,4.36-0.89,9.79-4.28,13.52c-7.24,7.96-20.78,3.79-26.26,1.62
				c-1.09-0.43-2.17-0.89-3.22-1.38c-1.07-0.49-2.14-1-3.2-1.5c-6.3-2.98-12.82-6.07-18.99-6.34c-2.25-0.1-4.37,0.12-6.48,0.66
				c-2.63,0.69-5.17,1.89-7.96,3.8c-3.99,2.72-7.79,6.08-11.82,9.64c-5.33,4.71-10.84,9.59-16.78,12.78
				c-3.03,1.64-5.96,2.75-8.96,3.38c-2.08,0.44-4.24,0.64-6.42,0.72l0,0.86c2.24-0.08,4.46-0.29,6.61-0.75
				c3.09-0.66,6.1-1.79,9.21-3.47c6.03-3.24,11.58-8.15,16.95-12.9c4-3.54,7.78-6.88,11.73-9.57c2.71-1.85,5.15-3.01,7.68-3.67
				c2.01-0.52,4.04-0.74,6.2-0.64c5.98,0.27,12.41,3.31,18.63,6.25c1.07,0.51,2.14,1.01,3.21,1.51c1.07,0.49,2.17,0.96,3.27,1.4
				c5.66,2.23,19.65,6.53,27.28-1.85c3.59-3.95,4.1-9.53,4.5-14.02c0.5-5.67,0.93-11.51,1.34-17.16c0.65-8.85,1.32-18,2.28-26.72
				c0.19-1.74,0.39-3.46,0.6-5.17c1.09-9,2.56-17.63,8.45-24.3c2.52-2.86,5.78-5.18,8.93-7.42c2.91-2.07,5.91-4.21,8.42-6.81
				c5.51-5.7,7.46-13.53,5.78-23.25c-0.38-2.19-1.18-4.26-1.95-6.26c-0.71-1.84-1.44-3.74-1.84-5.72c-0.34-1.7-0.39-3.41-0.14-4.93
				c0.21-1.29,0.63-2.44,1.24-3.41c0.98-1.55,2.43-2.67,3.84-3.75c0.32-0.24,0.63-0.49,0.94-0.73c3.32-2.65,6.03-6.02,8.06-9.92
				H160.25z"/>
		</g>
		<g>
			
				<linearGradient id="SVGID_13_" gradientUnits="userSpaceOnUse" x1="-1.4546" y1="83.4214" x2="174.8604" y2="267.6732" gradientTransform="matrix(1 0 0 1 69.2331 0)">
				<stop  offset="0.2413" style="stop-color:#F2A94A"/>
				<stop  offset="1" style="stop-color:#1B2237"/>
			</linearGradient>
			<path class="st15" d="M108.23,23.89c0.14-0.23,0.28-0.46,0.41-0.69c2.73-4.75,3.52-10.95,2.28-17.92
				c-0.24-1.31-0.55-2.63-0.92-3.93c-0.13-0.45-0.28-0.9-0.43-1.35h-0.94c0.18,0.52,0.35,1.05,0.51,1.58
				c0.37,1.27,0.67,2.57,0.9,3.85c1.21,6.78,0.45,12.78-2.18,17.36c-0.13,0.23-0.27,0.45-0.4,0.68c-0.54,0.91-1.11,1.85-1.48,3.04
				c-0.25,0.78-0.39,1.67-0.42,2.65c-0.04,1.14,0.06,2.35,0.31,3.62c0.23,1.21,0.56,2.38,0.88,3.51c0.47,1.67,0.92,3.26,1.07,4.95
				c0.58,6.48-1.05,11.67-4.84,15.44c-1.97,1.96-4.37,3.53-6.69,5.05c-1.87,1.22-3.8,2.48-5.48,3.94c-4.85,4.21-7.2,9.38-9.01,14.34
				c-0.39,1.07-0.76,2.13-1.1,3.18c-1.71,5.36-2.84,11.33-3.93,17.1c-0.72,3.81-1.46,7.74-2.36,11.44c-0.79,3.23-1.69,6.3-4.07,8.42
				c-5.49,4.87-14.59,2.91-20.96,1.01c-0.89-0.26-1.77-0.53-2.64-0.8c-5.89-1.79-12.6-3.54-17.64-1.61c-1.35,0.52-2.6,1.25-3.95,2.3
				c-1.38,1.08-2.62,2.38-3.92,3.77l-0.67,0.71C14.7,131.61,7.07,136.51,0,138.78l0,0.9c7.29-2.27,15.18-7.3,21.19-13.61l0.67-0.71
				c1.29-1.36,2.5-2.64,3.83-3.68c1.27-0.99,2.45-1.68,3.71-2.17c4.77-1.83,11.29-0.11,17.04,1.64c0.87,0.27,1.76,0.54,2.65,0.8
				c6.58,1.96,16.01,3.98,21.84-1.2c2.57-2.28,3.52-5.49,4.34-8.85c0.91-3.72,1.65-7.66,2.37-11.48c1.09-5.75,2.21-11.69,3.91-17
				c0.33-1.03,0.7-2.09,1.08-3.14c1.78-4.85,4.07-9.91,8.77-13.98c1.63-1.41,3.54-2.66,5.38-3.86c2.36-1.54,4.8-3.14,6.83-5.16
				c3.98-3.96,5.69-9.38,5.09-16.12c-0.16-1.77-0.64-3.46-1.1-5.1c-0.32-1.12-0.64-2.27-0.87-3.44c-0.23-1.21-0.33-2.37-0.29-3.44
				c0.03-0.9,0.16-1.71,0.38-2.42C107.17,25.65,107.71,24.76,108.23,23.89z"/>
		</g>
		<g>
			
				<linearGradient id="SVGID_14_" gradientUnits="userSpaceOnUse" x1="-8.8787" y1="90.5258" x2="167.4362" y2="274.7776" gradientTransform="matrix(1 0 0 1 69.2331 0)">
				<stop  offset="0.2413" style="stop-color:#F2A94A"/>
				<stop  offset="1" style="stop-color:#1B2237"/>
			</linearGradient>
			<path class="st16" d="M65.71,40.44c-1.73-5.91-5.96-10.75-9.45-14.32C49.5,19.24,43.3,15.2,36.75,13.43
				c-7.01-1.9-16.56-0.96-22.1,5.41c-0.48,0.55-0.92,1.14-1.35,1.7c-0.95,1.25-1.84,2.42-3.07,3.27c-3.04,2.1-7.2,1.43-10.22-0.2
				v0.98c3.24,1.59,7.53,2.14,10.74-0.08c1.35-0.93,2.33-2.22,3.27-3.47c0.42-0.56,0.86-1.13,1.32-1.66
				c5.29-6.08,14.45-6.96,21.17-5.13c6.39,1.73,12.46,5.69,19.1,12.46c3.42,3.49,7.57,8.23,9.24,13.96
				c1.7,5.82,0.31,11.81-3.54,15.26c-2.44,2.18-5.72,3.31-8.9,4.39c-3.14,1.07-6.38,2.18-8.92,4.31c-2.52,2.12-4.15,5.06-5.72,7.9
				c-1.95,3.53-3.79,6.86-7.18,8.68c-4.01,2.15-8.9,1.43-13.62,0.73c-0.71-0.11-1.42-0.21-2.13-0.31C11.49,81.2,3.48,80.74,0,85.76
				v1.82c0.14-0.32,0.28-0.64,0.47-0.94c3.03-5.06,10.98-4.58,14.25-4.13c0.7,0.09,1.4,0.2,2.11,0.3c4.87,0.72,9.92,1.47,14.2-0.82
				c3.63-1.95,5.61-5.55,7.54-9.03c1.53-2.77,3.11-5.64,5.51-7.65c2.42-2.03,5.58-3.11,8.63-4.15c3.26-1.12,6.63-2.27,9.21-4.57
				C66.02,52.91,67.51,46.57,65.71,40.44z"/>
		</g>
	</g>
</g>
</svg>
